<?xml version="1.0" encoding="UTF-8"?>
<svg id="a" data-name="Details" xmlns="http://www.w3.org/2000/svg" viewBox="0 0 288 288">
  <path d="M266.77,125.23l-.31-37.21s-.07,0-.11,0l-13.43-5.28-18.52-2.77c-.37.1-.74.19-1.12.28l-19.98,1.26c-.34.43-.67.9-1.1,1.04-3.45,1.54-2.34-3.14-4.99-2.96-.02.35-.09.64-.18.9l-24.06-5.13c-2.9-.66-5.44-1.1-7.43,1.83-.37-.86-.99-1.6-1.36-2.46-3.88-.62-6.59-1.17-10.47-1.05-.53-.41-.93-.97-1.3-1.57l-9.25-2.45s-.08.09-.11.14c-2.71-1.48-5.3-2.96-7.82-4.25l-.31-44.78c-20.39-.25-40.78,0-61.17,0-1.91,34.44-.8,69.92-1.17,104.97-24.02.31-48.05,0-72.01.55-.24,2.07.17,3.89,1.25,5.42l7.62,7.9c1.23.58,3.14.15,4.43.72l11.09,12.87c3.63,2.28,8.62,2.96,11.09,6.65l8.44,23.04c5.48,6.34,14.97,5.91,20.08,12.26,2.65.43,5.11,2.22,8.01,1.97l4.25-5.67c1.36-4.13.55-10.16,4.44-12.38,5.73,1.85,5.3-5.36,11.09-1.91,4.5.12,9.36,1.29,14.05,1.91,2.34,5.54,7.76,8.38,12.44,11.64,4.56,6.47,6.9,14.29,10.35,21.44,1.75,2.07,3.19,4.51,4.67,6.9l12.76,23.2c3.95,3.76,3.4,10.45,7.22,14.57,7.95,6.9,21.19,4,30.31,10.53,3.33-.06,6.16.12,9.36-.18-.06-1.66.12-3.08-.92-4.13l-2.22-.31c-1.23-6.53-3.26-12.5-4.99-18.79,1.85-2.22,3.08-4.8,1.91-7.64-1.85-.68-6.1,1.6-5.48-1.97,1.36,3.14,3.82-1.17,5.48,1.23,1.18-2.91,2.86-5.67,3.62-8.6l9.05-11.83c.22-.09.43-.18.63-.27,1.17-2.34-.99-4.19-.19-6.22,1.11.37,1.66,1.66,2.22,2.34l5.48-2.65c-.37-2.22-3.2-2.28-4.44-4,.31-.74-.68-1.79.62-1.91.43,2.22,3.39,1.79,4.87,2.65-.37-1.23,2.09-1.66,3.08-2.96,0,.78.17,1.9-.1,2.75l-1.23,3.98c4.95-3.1,10.68-6.16,15.99-9.26,2.89-1.54,5.73-4.25,7.08-6.78l-.43.43c-.06-.43.37-1.79.43-2.65l5.17-2.65c.43-3.45-.92-5.91-2.22-8.75,2.34,2.09,3.82-1.11,5.61-1.91.18,1.85-.68,3.82-.55,5.61,1.6.06,2.83-.74,4.56-.43-1.42,1.48-3.63,2.28-4.56,4.13,6.47-2.28,13.06-5.42,19.34-8.13.01-.11,0-.2,0-.29l2.34-6.37.32-.43c.99-9.24,2.83-18.11,2.96-27.66-4.87-5.11-4.8-13.24-10.16-18.48ZM230.85,191.21h-72.01v-101.73h69.42v20.69h-46.9v18.97h44.31v20.69h-44.31v20.69h49.5v20.69Z" style="stroke-width: 0px;"/>
  <path d="M266.77,125.23l-.31-37.21s-.07,0-.11,0l-13.43-5.28-18.52-2.77c-.37.1-.74.19-1.12.28l-19.98,1.26c-.34.43-.67.9-1.1,1.04-3.45,1.54-2.34-3.14-4.99-2.96-.02.35-.09.64-.18.9l-24.06-5.13c-2.9-.66-5.44-1.1-7.43,1.83-.37-.86-.99-1.6-1.36-2.46-3.88-.62-6.59-1.17-10.47-1.05-.53-.41-.93-.97-1.3-1.57l-9.25-2.45s-.08.09-.11.14c-2.71-1.48-5.3-2.96-7.82-4.25l-.31-44.78c-20.39-.25-40.78,0-61.17,0-1.91,34.44-.8,69.92-1.17,104.97-24.02.31-48.05,0-72.01.55-.24,2.07.17,3.89,1.25,5.42l7.62,7.9c1.23.58,3.14.15,4.43.72l11.09,12.87c3.63,2.28,8.62,2.96,11.09,6.65l8.44,23.04c5.48,6.34,14.97,5.91,20.08,12.26,2.65.43,5.11,2.22,8.01,1.97l4.25-5.67c1.36-4.13.55-10.16,4.44-12.38,5.73,1.85,5.3-5.36,11.09-1.91,4.5.12,9.36,1.29,14.05,1.91,2.34,5.54,7.76,8.38,12.44,11.64,4.56,6.47,6.9,14.29,10.35,21.44,1.75,2.07,3.19,4.51,4.67,6.9l12.76,23.2c3.95,3.76,3.4,10.45,7.22,14.57,7.95,6.9,21.19,4,30.31,10.53,3.33-.06,6.16.12,9.36-.18-.06-1.66.12-3.08-.92-4.13l-2.22-.31c-1.23-6.53-3.26-12.5-4.99-18.79,1.85-2.22,3.08-4.8,1.91-7.64-1.85-.68-6.1,1.6-5.48-1.97,1.36,3.14,3.82-1.17,5.48,1.23,1.18-2.91,2.86-5.67,3.62-8.6l9.05-11.83c.22-.09.43-.18.63-.27,1.17-2.34-.99-4.19-.19-6.22,1.11.37,1.66,1.66,2.22,2.34l5.48-2.65c-.37-2.22-3.2-2.28-4.44-4,.31-.74-.68-1.79.62-1.91.43,2.22,3.39,1.79,4.87,2.65-.37-1.23,2.09-1.66,3.08-2.96,0,.78.17,1.9-.1,2.75l-1.23,3.98c4.95-3.1,10.68-6.16,15.99-9.26,2.89-1.54,5.73-4.25,7.08-6.78l-.43.43c-.06-.43.37-1.79.43-2.65l5.17-2.65c.43-3.45-.92-5.91-2.22-8.75,2.34,2.09,3.82-1.11,5.61-1.91.18,1.85-.68,3.82-.55,5.61,1.6.06,2.83-.74,4.56-.43-1.42,1.48-3.63,2.28-4.56,4.13,6.47-2.28,13.06-5.42,19.34-8.13.01-.11,0-.2,0-.29l2.34-6.37.32-.43c.99-9.24,2.83-18.11,2.96-27.66-4.87-5.11-4.8-13.24-10.16-18.48ZM230.85,191.21h-72.01v-101.73h69.42v20.69h-46.9v18.97h44.31v20.69h-44.31v20.69h49.5v20.69Z" style="fill: none; stroke: #000; stroke-miterlimit: 10; stroke-width: 2px;"/>
</svg>